<svg width="450" height="450" viewBox="0 0 450 450" fill="none" xmlns="http://www.w3.org/2000/svg">
<rect width="450" height="450" rx="100" fill="black"/>
<path d="M203 70.2951L324.956 140.5L203 210.705L203 70.2951ZM332.483 144.833C332.482 144.832 332.48 144.831 332.478 144.83L332.483 144.833L334.978 140.5L332.483 144.833Z" stroke="white" stroke-width="20"/>
<path d="M334.978 309.5L332.483 305.167L332.478 305.17C332.48 305.169 332.482 305.168 332.483 305.167L334.978 309.5ZM334.978 309.5L332.483 313.833L332.478 313.83C332.48 313.831 332.482 313.832 332.483 313.833L334.978 309.5ZM324.956 309.5L203 379.705L203 239.295L324.956 309.5Z" stroke="#F2C94C" stroke-width="20"/>
<rect x="150" y="56" width="25" height="338" rx="5" fill="white"/>
</svg>
